<svg xmlns="http://www.w3.org/2000/svg" width="20.054" height="20.054" viewBox="0 0 20.054 20.054">
  <path id="Path_17" data-name="Path 17" d="M13.027-21.059a9.837,9.837,0,0,1,2.665.358,10.178,10.178,0,0,1,2.4,1.009,9.96,9.96,0,0,1,2.032,1.567,9.961,9.961,0,0,1,1.567,2.032A10.178,10.178,0,0,1,22.7-13.7a9.837,9.837,0,0,1,.358,2.665A9.837,9.837,0,0,1,22.7-8.367a10.178,10.178,0,0,1-1.009,2.4A9.96,9.96,0,0,1,20.12-3.939a9.96,9.96,0,0,1-2.032,1.567,10.178,10.178,0,0,1-2.4,1.009A9.837,9.837,0,0,1,13.027-1a9.837,9.837,0,0,1-2.665-.358,10.178,10.178,0,0,1-2.4-1.009A9.96,9.96,0,0,1,5.935-3.939,9.96,9.96,0,0,1,4.367-5.971a10.178,10.178,0,0,1-1.009-2.4A9.837,9.837,0,0,1,3-11.031,9.837,9.837,0,0,1,3.358-13.7a10.178,10.178,0,0,1,1.009-2.4,9.96,9.96,0,0,1,1.567-2.032,9.96,9.96,0,0,1,2.032-1.567,10.178,10.178,0,0,1,2.4-1.009A9.837,9.837,0,0,1,13.027-21.059Zm0,18.715a8.523,8.523,0,0,0,2.311-.312,8.8,8.8,0,0,0,2.074-.874,8.652,8.652,0,0,0,1.758-1.358,8.652,8.652,0,0,0,1.358-1.758A8.8,8.8,0,0,0,21.4-8.72a8.523,8.523,0,0,0,.312-2.311,8.667,8.667,0,0,0-.465-2.828,8.672,8.672,0,0,0-1.367-2.521h-.837a2.168,2.168,0,0,1-.851-.149,2.783,2.783,0,0,1-.633-.372,4.584,4.584,0,0,1-.526-.484,4.811,4.811,0,0,0-.521-.484,2.655,2.655,0,0,0-.633-.372,2.175,2.175,0,0,0-.846-.149h-.223a.677.677,0,0,0-.307.07.268.268,0,0,0-.14.265.267.267,0,0,0,.163.284,1.021,1.021,0,0,0,.358.06q.084,0,.163,0t.144,0a1.732,1.732,0,0,1,.181.009.546.546,0,0,1,.163.042.276.276,0,0,1,.121.1.321.321,0,0,1,.047.181.334.334,0,0,1-.051.2.3.3,0,0,1-.135.1.572.572,0,0,1-.181.037q-.1,0-.191,0a.742.742,0,0,1,.321.144q.135.107.265.223a1.911,1.911,0,0,0,.274.2.674.674,0,0,0,.358.088H16.7a.323.323,0,0,1,.237.1.323.323,0,0,1,.1.237q0,.223-.144.279a.856.856,0,0,1-.312.056h-.214a.306.306,0,0,0-.228.1.328.328,0,0,0-.1.233.258.258,0,0,1-.074.2.536.536,0,0,1-.186.1q-.112.037-.242.07a.92.92,0,0,0-.242.1.534.534,0,0,0-.186.186.66.66,0,0,0-.074.344.655.655,0,0,1-.107.391,2.217,2.217,0,0,1-.233.274,1.947,1.947,0,0,0-.228.274.677.677,0,0,0-.1.391v.186a1.644,1.644,0,0,1-.009.172.494.494,0,0,1-.042.158.253.253,0,0,1-.1.112.349.349,0,0,1-.181.042q-.186,0-.242-.1A1.167,1.167,0,0,1,13.7-12.7a1.3,1.3,0,0,0-.093-.233.247.247,0,0,0-.242-.107h-1a.643.643,0,0,0-.47.2.643.643,0,0,0-.2.47v.353a3.464,3.464,0,0,0,.019.363.916.916,0,0,0,.088.316.546.546,0,0,0,.2.223.673.673,0,0,0,.358.084q.186,0,.242-.1a1.167,1.167,0,0,0,.093-.228,1.3,1.3,0,0,1,.093-.233.247.247,0,0,1,.242-.107.247.247,0,0,1,.242.107,1.3,1.3,0,0,1,.093.233,1.167,1.167,0,0,0,.093.228q.056.1.242.1a.258.258,0,0,1,.246.107.84.84,0,0,1,.088.233.775.775,0,0,0,.088.228.263.263,0,0,0,.246.1h2a1.273,1.273,0,0,1,.521.107,1.384,1.384,0,0,1,.423.288,1.384,1.384,0,0,1,.288.423,1.273,1.273,0,0,1,.107.521.643.643,0,0,0,.2.47.643.643,0,0,0,.47.2.651.651,0,0,1,.47.2.628.628,0,0,1,.2.465,1.385,1.385,0,0,1-.186.739,3.311,3.311,0,0,1-.484.6L16.366-4.344q-.2.2-.353.326a1.383,1.383,0,0,1-.33.2,1.565,1.565,0,0,1-.377.107,3.123,3.123,0,0,1-.484.033.788.788,0,0,1-.316-.06.266.266,0,0,1-.14-.274q0-.186.1-.242a1.167,1.167,0,0,1,.228-.093,1.3,1.3,0,0,0,.233-.093.247.247,0,0,0,.107-.242V-6.353a.646.646,0,0,0-.2-.474.646.646,0,0,0-.474-.2.673.673,0,0,1-.358-.084.546.546,0,0,1-.2-.223.909.909,0,0,1-.088-.312,3.157,3.157,0,0,1-.019-.34q0-.279.019-.512a1.793,1.793,0,0,1,.088-.437A1.554,1.554,0,0,1,14-9.32a1.843,1.843,0,0,1,.363-.372,1.441,1.441,0,0,1-.744-.186,2.684,2.684,0,0,1-.6-.484,2.689,2.689,0,0,0-.428-.386,1.4,1.4,0,0,0-.4-.2,1.93,1.93,0,0,0-.428-.074q-.223-.014-.5-.014h-.251a.628.628,0,0,1-.465-.2.651.651,0,0,1-.2-.47,1.473,1.473,0,0,0-.1-.563,1.723,1.723,0,0,0-.246-.423,3.489,3.489,0,0,0-.326-.353,3.489,3.489,0,0,1-.326-.353,1.751,1.751,0,0,1-.246-.419,1.438,1.438,0,0,1-.1-.558,1.934,1.934,0,0,0-.158-.781,2.052,2.052,0,0,0-.433-.637,2.052,2.052,0,0,0-.637-.433,1.934,1.934,0,0,0-.781-.158H6.181a8.76,8.76,0,0,0-1.372,2.521,8.589,8.589,0,0,0-.47,2.828A8.523,8.523,0,0,0,4.651-8.72a8.8,8.8,0,0,0,.874,2.074A8.652,8.652,0,0,0,6.883-4.888,8.652,8.652,0,0,0,8.641-3.53a8.8,8.8,0,0,0,2.074.874A8.523,8.523,0,0,0,13.027-2.344Zm0-17.375a8.783,8.783,0,0,0-2.014.233,8.39,8.39,0,0,0-1.9.7l.577.4h1.33q.2,0,.246.107a.928.928,0,0,1,.074.233.691.691,0,0,0,.084.228q.06.1.265.1a.4.4,0,0,0,.256-.093.3.3,0,0,0,.116-.242,1.634,1.634,0,0,1,.121-.344,1.488,1.488,0,0,1,.2-.321,1.043,1.043,0,0,1,.284-.237.709.709,0,0,1,.358-.093h3.349a8.573,8.573,0,0,0-1.642-.5A8.729,8.729,0,0,0,13.027-19.719Zm1,2a.247.247,0,0,0-.242.107,1.3,1.3,0,0,0-.093.233,1.167,1.167,0,0,1-.093.228q-.056.1-.242.1-.112,0-.219-.009t-.219-.009q-.093,0-.191.009a.579.579,0,0,0-.181.047.366.366,0,0,0-.14.107.3.3,0,0,0-.056.191.3.3,0,0,0,.056.191.366.366,0,0,0,.14.107.578.578,0,0,0,.181.047q.1.009.191.009.112,0,.219-.009t.219-.009a.247.247,0,0,1,.242.107,1.3,1.3,0,0,1,.093.233,1.167,1.167,0,0,0,.093.228q.056.1.242.1.233,0,.284-.149a1,1,0,0,0,.051-.326v-.2a.661.661,0,0,1,.167-.451.64.64,0,0,1,.428-.219H14.7q-.186,0-.242-.1a1,1,0,0,1-.088-.228.96.96,0,0,0-.093-.233A.258.258,0,0,0,14.032-17.719Zm1.06.67a.1.1,0,0,0,.047.009Z" transform="translate(-3 21.059)" fill="#fff"/>
</svg>
