<svg xmlns="http://www.w3.org/2000/svg" width="221.516" height="56.208" viewBox="0 0 221.516 56.208">
  <g id="Group_46" data-name="Group 46" transform="translate(-849 -545)">
    <path id="Path_12" data-name="Path 12" d="M892.99,614.78a1.945,1.945,0,0,0-1.943,1.941v52.326a1.945,1.945,0,0,0,1.943,1.941h90.076a1.945,1.945,0,0,0,1.943-1.941V616.721a1.945,1.945,0,0,0-1.943-1.941Z" transform="translate(85.506 -69.78)" fill="#3f3d56"/>
    <path id="Path_13" data-name="Path 13" d="M907.392,621.779a3.623,3.623,0,0,0-3.619,3.619V665.14a3.623,3.623,0,0,0,3.619,3.618h69.944a3.623,3.623,0,0,0,3.619-3.618V625.4a3.623,3.623,0,0,0-3.619-3.619Z" transform="translate(81.171 -72.164)" fill="#ff6584"/>
    <rect id="Rectangle_41" data-name="Rectangle 41" width="46.921" height="10.868" transform="translate(932.588 562.237)" fill="#3f3d56"/>
    <path id="Path_14" data-name="Path 14" d="M699.536,614.78a1.944,1.944,0,0,0-1.941,1.941v52.326a1.944,1.944,0,0,0,1.941,1.941h90.078a1.944,1.944,0,0,0,1.941-1.941V616.721a1.944,1.944,0,0,0-1.941-1.941Z" transform="translate(151.405 -69.78)" fill="#3f3d56"/>
    <path id="Path_15" data-name="Path 15" d="M713.938,621.779a3.623,3.623,0,0,0-3.62,3.619V665.14a3.623,3.623,0,0,0,3.62,3.619h69.942a3.623,3.623,0,0,0,3.62-3.619V625.4a3.623,3.623,0,0,0-3.62-3.619Z" transform="translate(147.071 -72.164)" fill="#d65a31"/>
  </g>
</svg>
